<svg width="12" height="16" viewBox="0 0 12 16" fill="none" xmlns="http://www.w3.org/2000/svg">
<path d="M5.37931 3.80006C5.37931 3.46867 5.65721 3.20002 6 3.20002C6.34279 3.20002 6.62069 3.46867 6.62069 3.80006V5.00017C6.62069 5.33157 6.34279 5.60021 6 5.60021C5.65721 5.60021 5.37931 5.33157 5.37931 5.00017V3.80006ZM9.54232 4.97242C9.29992 4.73809 8.90698 4.73809 8.66458 4.97242L7.78676 5.82102C7.54436 6.05535 7.54436 6.43526 7.78676 6.6696C8.02916 6.90393 8.42218 6.90393 8.66458 6.6696L9.54232 5.821C9.78472 5.58667 9.78472 5.20674 9.54232 4.97242ZM3.33544 4.97242C3.09305 4.73809 2.70004 4.73809 2.45765 4.97242C2.21526 5.20674 2.21526 5.58667 2.45765 5.821L3.33545 6.6696C3.57785 6.90393 3.97085 6.90393 4.21324 6.6696C4.45564 6.43526 4.45564 6.05535 4.21324 5.82102L3.33544 4.97242ZM6 0C9.31374 0 12 2.59692 12 5.8004C12 7.47733 11.2546 9.0164 9.79606 10.3943C9.73241 10.4544 9.68309 10.5268 9.65115 10.6065L9.62516 10.6884L8.68908 14.6051C8.50477 15.3763 7.82359 15.935 7.0181 15.9947L6.87476 16H5.12549C4.30654 16 3.58999 15.4839 3.34865 14.7385L3.31107 14.6046L2.37626 10.6885C2.34955 10.5766 2.29016 10.4744 2.20515 10.3942C0.815296 9.08192 0.0726457 7.6235 0.00507328 6.03902L0 5.8004L0.00321105 5.60893C0.107702 2.49408 2.75256 0 6 0ZM7.75034 13.1993H4.24883L4.52069 14.3348C4.57912 14.5798 4.78817 14.7606 5.04008 14.7942L5.12549 14.7999H6.87476C7.13487 14.7999 7.36395 14.6437 7.45465 14.4141L7.47956 14.3349L7.75034 13.1993ZM6 1.20008C3.433 1.20008 1.34074 3.16503 1.24481 5.62394L1.24138 5.8004L1.24694 6.02202C1.30995 7.27276 1.90942 8.43748 3.07251 9.53563C3.2911 9.74205 3.45323 9.99671 3.54556 10.2767L3.58586 10.4187L3.96248 11.9992H5.37931V6.99994C5.37931 6.66856 5.65721 6.3999 6 6.3999C6.34279 6.3999 6.62069 6.66856 6.62069 6.99994V11.9992H8.03669L8.41564 10.4182C8.48433 10.1306 8.62494 9.86462 8.82406 9.643L8.9285 9.53596C10.0909 8.4378 10.6901 7.273 10.7531 6.02206L10.7586 5.8004L10.7551 5.62394C10.6592 3.16503 8.56701 1.20008 6 1.20008Z" fill="#616161"/>
</svg>
