<svg width="204" height="204" viewBox="0 0 204 204" fill="none" xmlns="http://www.w3.org/2000/svg">
<rect width="204" height="204" rx="8" fill="#0078D4"/>
<path d="M94.125 70.5012H102V102.001H94.125V70.5012ZM70.5 86.251H39V54.7514H46.875V71.6086C49.623 66.5637 52.9658 62.0316 56.9033 58.0121C60.8408 53.9926 65.1885 50.5883 69.9463 47.7993C74.7041 45.0103 79.8105 42.8365 85.2656 41.2779C90.7207 39.7193 96.2988 38.9606 102 39.0016C107.783 39.0016 113.361 39.7398 118.734 41.2164C124.107 42.6929 129.132 44.8052 133.808 47.5532C138.483 50.3012 142.729 53.5824 146.543 57.3969C150.357 61.2113 153.639 65.4768 156.387 70.1936C159.135 74.9103 161.247 79.9347 162.724 85.2666C164.2 90.5986 164.959 96.1766 165 102.001H157.125C157.125 96.9559 156.469 92.0956 155.156 87.4199C153.844 82.7442 151.998 78.3556 149.619 74.2541C147.24 70.1526 144.349 66.4202 140.944 63.0569C137.54 59.6937 133.828 56.8226 129.809 54.4438C125.789 52.0649 121.4 50.1987 116.643 48.8452C111.885 47.4917 107.004 46.8355 102 46.8765C96.709 46.8765 91.5615 47.6147 86.5576 49.0913C81.5537 50.5678 76.8984 52.6801 72.5918 55.4281C68.2852 58.1761 64.3682 61.4779 60.8408 65.3333C57.3135 69.1887 54.4424 73.5363 52.2275 78.3761H70.5V86.251ZM102 109.876H165V117.751H102V109.876ZM102 133.5H165V141.375H102V133.5ZM102 157.125H165V165H102V157.125ZM48.9053 116.705C50.3818 121.996 52.5352 126.897 55.3652 131.409C58.1953 135.92 61.5996 139.899 65.5781 143.344C69.5566 146.789 73.9453 149.66 78.7441 151.957C83.543 154.254 88.6699 155.772 94.125 156.51V164.508C87.8086 163.646 81.8203 161.944 76.1602 159.401C70.5 156.859 65.373 153.618 60.7793 149.681C56.1855 145.743 52.2275 141.15 48.9053 135.9C45.583 130.65 43.0605 124.949 41.3379 118.796L48.9053 116.705Z" fill="white"/>
</svg>